<svg width="273" height="72" viewBox="0 0 273 72" fill="none" xmlns="http://www.w3.org/2000/svg">
<rect width="273" height="72" rx="12" fill="#7B61FF"/>
<g clip-path="url(#clip0_301_1543)">
<path d="M36 46C30.477 46 26 41.523 26 36C26 30.477 30.477 26 36 26C41.523 26 46 30.477 46 36C46 41.523 41.523 46 36 46ZM33.71 43.667C32.7234 41.5743 32.1519 39.3102 32.027 37H28.062C28.2566 38.5389 28.8939 39.9882 29.8966 41.1717C30.8992 42.3552 32.224 43.2221 33.71 43.667ZM34.03 37C34.181 39.439 34.878 41.73 36 43.752C37.1523 41.6766 37.8254 39.3695 37.97 37H34.03ZM43.938 37H39.973C39.8481 39.3102 39.2766 41.5743 38.29 43.667C39.776 43.2221 41.1008 42.3552 42.1034 41.1717C43.1061 39.9882 43.7434 38.5389 43.938 37ZM28.062 35H32.027C32.1519 32.6898 32.7234 30.4257 33.71 28.333C32.224 28.7779 30.8992 29.6448 29.8966 30.8283C28.8939 32.0118 28.2566 33.4611 28.062 35ZM34.031 35H37.969C37.8248 32.6306 37.152 30.3235 36 28.248C34.8477 30.3234 34.1746 32.6305 34.03 35H34.031ZM38.29 28.333C39.2766 30.4257 39.8481 32.6898 39.973 35H43.938C43.7434 33.4611 43.1061 32.0118 42.1034 30.8283C41.1008 29.6448 39.776 28.7779 38.29 28.333Z" fill="white"/>
</g>
<path d="M61.634 29.436C62.954 29.436 64.112 29.694 65.108 30.21C66.116 30.726 66.89 31.464 67.43 32.424C67.982 33.372 68.258 34.476 68.258 35.736C68.258 36.996 67.982 38.1 67.43 39.048C66.89 39.984 66.116 40.71 65.108 41.226C64.112 41.742 62.954 42 61.634 42H57.242V29.436H61.634ZM61.544 39.858C62.864 39.858 63.884 39.498 64.604 38.778C65.324 38.058 65.684 37.044 65.684 35.736C65.684 34.428 65.324 33.408 64.604 32.676C63.884 31.932 62.864 31.56 61.544 31.56H59.762V39.858H61.544ZM71.4223 30.84C70.9783 30.84 70.6063 30.702 70.3063 30.426C70.0183 30.138 69.8743 29.784 69.8743 29.364C69.8743 28.944 70.0183 28.596 70.3063 28.32C70.6063 28.032 70.9783 27.888 71.4223 27.888C71.8663 27.888 72.2323 28.032 72.5203 28.32C72.8203 28.596 72.9703 28.944 72.9703 29.364C72.9703 29.784 72.8203 30.138 72.5203 30.426C72.2323 30.702 71.8663 30.84 71.4223 30.84ZM72.6643 32.028V42H70.1443V32.028H72.6643ZM78.9701 42.162C78.1541 42.162 77.4221 42.018 76.7741 41.73C76.1261 41.43 75.6101 41.028 75.2261 40.524C74.8541 40.02 74.6501 39.462 74.6141 38.85H77.1521C77.2001 39.234 77.3861 39.552 77.7101 39.804C78.0461 40.056 78.4601 40.182 78.9521 40.182C79.4321 40.182 79.8041 40.086 80.0681 39.894C80.3441 39.702 80.4821 39.456 80.4821 39.156C80.4821 38.832 80.3141 38.592 79.9781 38.436C79.6541 38.268 79.1321 38.088 78.4121 37.896C77.6681 37.716 77.0561 37.53 76.5761 37.338C76.1081 37.146 75.7001 36.852 75.3521 36.456C75.0161 36.06 74.8481 35.526 74.8481 34.854C74.8481 34.302 75.0041 33.798 75.3161 33.342C75.6401 32.886 76.0961 32.526 76.6841 32.262C77.2841 31.998 77.9861 31.866 78.7901 31.866C79.9781 31.866 80.9261 32.166 81.6341 32.766C82.3421 33.354 82.7321 34.152 82.8041 35.16H80.3921C80.3561 34.764 80.1881 34.452 79.8881 34.224C79.6001 33.984 79.2101 33.864 78.7181 33.864C78.2621 33.864 77.9081 33.948 77.6561 34.116C77.4161 34.284 77.2961 34.518 77.2961 34.818C77.2961 35.154 77.4641 35.412 77.8001 35.592C78.1361 35.76 78.6581 35.934 79.3661 36.114C80.0861 36.294 80.6801 36.48 81.1481 36.672C81.6161 36.864 82.0181 37.164 82.3541 37.572C82.7021 37.968 82.8821 38.496 82.8941 39.156C82.8941 39.732 82.7321 40.248 82.4081 40.704C82.0961 41.16 81.6401 41.52 81.0401 41.784C80.4521 42.036 79.7621 42.162 78.9701 42.162ZM84.3147 37.014C84.3147 35.982 84.5247 35.082 84.9447 34.314C85.3647 33.534 85.9467 32.934 86.6907 32.514C87.4347 32.082 88.2867 31.866 89.2467 31.866C90.4827 31.866 91.5027 32.178 92.3067 32.802C93.1227 33.414 93.6687 34.278 93.9447 35.394H91.2267C91.0827 34.962 90.8367 34.626 90.4887 34.386C90.1527 34.134 89.7327 34.008 89.2287 34.008C88.5087 34.008 87.9387 34.272 87.5187 34.8C87.0987 35.316 86.8887 36.054 86.8887 37.014C86.8887 37.962 87.0987 38.7 87.5187 39.228C87.9387 39.744 88.5087 40.002 89.2287 40.002C90.2487 40.002 90.9147 39.546 91.2267 38.634H93.9447C93.6687 39.714 93.1227 40.572 92.3067 41.208C91.4907 41.844 90.4707 42.162 89.2467 42.162C88.2867 42.162 87.4347 41.952 86.6907 41.532C85.9467 41.1 85.3647 40.5 84.9447 39.732C84.5247 38.952 84.3147 38.046 84.3147 37.014ZM100.219 42.162C99.2588 42.162 98.3948 41.952 97.6268 41.532C96.8588 41.1 96.2528 40.494 95.8088 39.714C95.3768 38.934 95.1608 38.034 95.1608 37.014C95.1608 35.994 95.3828 35.094 95.8268 34.314C96.2828 33.534 96.9008 32.934 97.6808 32.514C98.4608 32.082 99.3308 31.866 100.291 31.866C101.251 31.866 102.121 32.082 102.901 32.514C103.681 32.934 104.293 33.534 104.737 34.314C105.193 35.094 105.421 35.994 105.421 37.014C105.421 38.034 105.187 38.934 104.719 39.714C104.263 40.494 103.639 41.1 102.847 41.532C102.067 41.952 101.191 42.162 100.219 42.162ZM100.219 39.966C100.675 39.966 101.101 39.858 101.497 39.642C101.905 39.414 102.229 39.078 102.469 38.634C102.709 38.19 102.829 37.65 102.829 37.014C102.829 36.066 102.577 35.34 102.073 34.836C101.581 34.32 100.975 34.062 100.255 34.062C99.5348 34.062 98.9288 34.32 98.4368 34.836C97.9568 35.34 97.7168 36.066 97.7168 37.014C97.7168 37.962 97.9508 38.694 98.4188 39.21C98.8988 39.714 99.4988 39.966 100.219 39.966ZM111.427 39.678L113.947 32.028H116.629L112.939 42H109.879L106.207 32.028H108.907L111.427 39.678ZM127.315 36.798C127.315 37.158 127.291 37.482 127.243 37.77H119.953C120.013 38.49 120.265 39.054 120.709 39.462C121.153 39.87 121.699 40.074 122.347 40.074C123.283 40.074 123.949 39.672 124.345 38.868H127.063C126.775 39.828 126.223 40.62 125.407 41.244C124.591 41.856 123.589 42.162 122.401 42.162C121.441 42.162 120.577 41.952 119.809 41.532C119.053 41.1 118.459 40.494 118.027 39.714C117.607 38.934 117.397 38.034 117.397 37.014C117.397 35.982 117.607 35.076 118.027 34.296C118.447 33.516 119.035 32.916 119.791 32.496C120.547 32.076 121.417 31.866 122.401 31.866C123.349 31.866 124.195 32.07 124.939 32.478C125.695 32.886 126.277 33.468 126.685 34.224C127.105 34.968 127.315 35.826 127.315 36.798ZM124.705 36.078C124.693 35.43 124.459 34.914 124.003 34.53C123.547 34.134 122.989 33.936 122.329 33.936C121.705 33.936 121.177 34.128 120.745 34.512C120.325 34.884 120.067 35.406 119.971 36.078H124.705ZM131.674 33.576C131.998 33.048 132.418 32.634 132.934 32.334C133.462 32.034 134.062 31.884 134.734 31.884V34.53H134.068C133.276 34.53 132.676 34.716 132.268 35.088C131.872 35.46 131.674 36.108 131.674 37.032V42H129.154V32.028H131.674V33.576ZM145.149 42.162C144.189 42.162 143.325 41.952 142.557 41.532C141.789 41.1 141.183 40.494 140.739 39.714C140.307 38.934 140.091 38.034 140.091 37.014C140.091 35.994 140.313 35.094 140.757 34.314C141.213 33.534 141.831 32.934 142.611 32.514C143.391 32.082 144.261 31.866 145.221 31.866C146.181 31.866 147.051 32.082 147.831 32.514C148.611 32.934 149.223 33.534 149.667 34.314C150.123 35.094 150.351 35.994 150.351 37.014C150.351 38.034 150.117 38.934 149.649 39.714C149.193 40.494 148.569 41.1 147.777 41.532C146.997 41.952 146.121 42.162 145.149 42.162ZM145.149 39.966C145.605 39.966 146.031 39.858 146.427 39.642C146.835 39.414 147.159 39.078 147.399 38.634C147.639 38.19 147.759 37.65 147.759 37.014C147.759 36.066 147.507 35.34 147.003 34.836C146.511 34.32 145.905 34.062 145.185 34.062C144.465 34.062 143.859 34.32 143.367 34.836C142.887 35.34 142.647 36.066 142.647 37.014C142.647 37.962 142.881 38.694 143.349 39.21C143.829 39.714 144.429 39.966 145.149 39.966ZM157.725 31.884C158.913 31.884 159.873 32.262 160.605 33.018C161.337 33.762 161.703 34.806 161.703 36.15V42H159.183V36.492C159.183 35.7 158.985 35.094 158.589 34.674C158.193 34.242 157.653 34.026 156.969 34.026C156.273 34.026 155.721 34.242 155.313 34.674C154.917 35.094 154.719 35.7 154.719 36.492V42H152.199V32.028H154.719V33.27C155.055 32.838 155.481 32.502 155.997 32.262C156.525 32.01 157.101 31.884 157.725 31.884ZM168.136 32.334C168.196 31.134 168.616 30.21 169.396 29.562C170.188 28.902 171.226 28.572 172.51 28.572C173.386 28.572 174.136 28.728 174.76 29.04C175.384 29.34 175.852 29.754 176.164 30.282C176.488 30.798 176.65 31.386 176.65 32.046C176.65 32.802 176.452 33.444 176.056 33.972C175.672 34.488 175.21 34.836 174.67 35.016V35.088C175.366 35.304 175.906 35.688 176.29 36.24C176.686 36.792 176.884 37.5 176.884 38.364C176.884 39.084 176.716 39.726 176.38 40.29C176.056 40.854 175.57 41.298 174.922 41.622C174.286 41.934 173.518 42.09 172.618 42.09C171.262 42.09 170.158 41.748 169.306 41.064C168.454 40.38 168.004 39.372 167.956 38.04H170.404C170.428 38.628 170.626 39.102 170.998 39.462C171.382 39.81 171.904 39.984 172.564 39.984C173.176 39.984 173.644 39.816 173.968 39.48C174.304 39.132 174.472 38.688 174.472 38.148C174.472 37.428 174.244 36.912 173.788 36.6C173.332 36.288 172.624 36.132 171.664 36.132H171.142V34.062H171.664C173.368 34.062 174.22 33.492 174.22 32.352C174.22 31.836 174.064 31.434 173.752 31.146C173.452 30.858 173.014 30.714 172.438 30.714C171.874 30.714 171.436 30.87 171.124 31.182C170.824 31.482 170.65 31.866 170.602 32.334H168.136ZM183.556 29.436C184.876 29.436 186.034 29.694 187.03 30.21C188.038 30.726 188.812 31.464 189.352 32.424C189.904 33.372 190.18 34.476 190.18 35.736C190.18 36.996 189.904 38.1 189.352 39.048C188.812 39.984 188.038 40.71 187.03 41.226C186.034 41.742 184.876 42 183.556 42H179.164V29.436H183.556ZM183.466 39.858C184.786 39.858 185.806 39.498 186.526 38.778C187.246 38.058 187.606 37.044 187.606 35.736C187.606 34.428 187.246 33.408 186.526 32.676C185.806 31.932 184.786 31.56 183.466 31.56H181.684V39.858H183.466ZM205.103 33.216C204.815 32.688 204.419 32.286 203.915 32.01C203.411 31.734 202.823 31.596 202.151 31.596C201.407 31.596 200.747 31.764 200.171 32.1C199.595 32.436 199.145 32.916 198.821 33.54C198.497 34.164 198.335 34.884 198.335 35.7C198.335 36.54 198.497 37.272 198.821 37.896C199.157 38.52 199.619 39 200.207 39.336C200.795 39.672 201.479 39.84 202.259 39.84C203.219 39.84 204.005 39.588 204.617 39.084C205.229 38.568 205.631 37.854 205.823 36.942H201.503V35.016H208.307V37.212C208.139 38.088 207.779 38.898 207.227 39.642C206.675 40.386 205.961 40.986 205.085 41.442C204.221 41.886 203.249 42.108 202.169 42.108C200.957 42.108 199.859 41.838 198.875 41.298C197.903 40.746 197.135 39.984 196.571 39.012C196.019 38.04 195.743 36.936 195.743 35.7C195.743 34.464 196.019 33.36 196.571 32.388C197.135 31.404 197.903 30.642 198.875 30.102C199.859 29.55 200.951 29.274 202.151 29.274C203.567 29.274 204.797 29.622 205.841 30.318C206.885 31.002 207.605 31.968 208.001 33.216H205.103ZM212.692 28.68V42H210.172V28.68H212.692ZM219.609 42.162C218.649 42.162 217.785 41.952 217.017 41.532C216.249 41.1 215.643 40.494 215.199 39.714C214.767 38.934 214.551 38.034 214.551 37.014C214.551 35.994 214.773 35.094 215.217 34.314C215.673 33.534 216.291 32.934 217.071 32.514C217.851 32.082 218.721 31.866 219.681 31.866C220.641 31.866 221.511 32.082 222.291 32.514C223.071 32.934 223.683 33.534 224.127 34.314C224.583 35.094 224.811 35.994 224.811 37.014C224.811 38.034 224.577 38.934 224.109 39.714C223.653 40.494 223.029 41.1 222.237 41.532C221.457 41.952 220.581 42.162 219.609 42.162ZM219.609 39.966C220.065 39.966 220.491 39.858 220.887 39.642C221.295 39.414 221.619 39.078 221.859 38.634C222.099 38.19 222.219 37.65 222.219 37.014C222.219 36.066 221.967 35.34 221.463 34.836C220.971 34.32 220.365 34.062 219.645 34.062C218.925 34.062 218.319 34.32 217.827 34.836C217.347 35.34 217.107 36.066 217.107 37.014C217.107 37.962 217.341 38.694 217.809 39.21C218.289 39.714 218.889 39.966 219.609 39.966ZM229.18 33.486C229.504 33.006 229.948 32.616 230.512 32.316C231.088 32.016 231.742 31.866 232.474 31.866C233.326 31.866 234.094 32.076 234.778 32.496C235.474 32.916 236.02 33.516 236.416 34.296C236.824 35.064 237.028 35.958 237.028 36.978C237.028 37.998 236.824 38.904 236.416 39.696C236.02 40.476 235.474 41.082 234.778 41.514C234.094 41.946 233.326 42.162 232.474 42.162C231.73 42.162 231.076 42.018 230.512 41.73C229.96 41.43 229.516 41.046 229.18 40.578V42H226.66V28.68H229.18V33.486ZM234.454 36.978C234.454 36.378 234.328 35.862 234.076 35.43C233.836 34.986 233.512 34.65 233.104 34.422C232.708 34.194 232.276 34.08 231.808 34.08C231.352 34.08 230.92 34.2 230.512 34.44C230.116 34.668 229.792 35.004 229.54 35.448C229.3 35.892 229.18 36.414 229.18 37.014C229.18 37.614 229.3 38.136 229.54 38.58C229.792 39.024 230.116 39.366 230.512 39.606C230.92 39.834 231.352 39.948 231.808 39.948C232.276 39.948 232.708 39.828 233.104 39.588C233.512 39.348 233.836 39.006 234.076 38.562C234.328 38.118 234.454 37.59 234.454 36.978ZM248.129 36.798C248.129 37.158 248.105 37.482 248.057 37.77H240.767C240.827 38.49 241.079 39.054 241.523 39.462C241.967 39.87 242.513 40.074 243.161 40.074C244.097 40.074 244.763 39.672 245.159 38.868H247.877C247.589 39.828 247.037 40.62 246.221 41.244C245.405 41.856 244.403 42.162 243.215 42.162C242.255 42.162 241.391 41.952 240.623 41.532C239.867 41.1 239.273 40.494 238.841 39.714C238.421 38.934 238.211 38.034 238.211 37.014C238.211 35.982 238.421 35.076 238.841 34.296C239.261 33.516 239.849 32.916 240.605 32.496C241.361 32.076 242.231 31.866 243.215 31.866C244.163 31.866 245.009 32.07 245.753 32.478C246.509 32.886 247.091 33.468 247.499 34.224C247.919 34.968 248.129 35.826 248.129 36.798ZM245.519 36.078C245.507 35.43 245.273 34.914 244.817 34.53C244.361 34.134 243.803 33.936 243.143 33.936C242.519 33.936 241.991 34.128 241.559 34.512C241.139 34.884 240.881 35.406 240.785 36.078H245.519Z" fill="white"/>
<defs>
<clipPath id="clip0_301_1543">
<rect width="24" height="24" fill="white" transform="translate(24 24)"/>
</clipPath>
</defs>
</svg>
